
<svg width="17px" height="17px" viewBox="0 0 17 17" version="1.1" xmlns="http://www.w3.org/2000/svg" xmlns:xlink="http://www.w3.org/1999/xlink">
    <g id="Page-1" stroke="none" stroke-width="1" fill="none" fill-rule="evenodd">
        <g id="Desktop-HD" transform="translate(-19.000000, -222.000000)" fill="#000000" fill-rule="nonzero">
            <g id="Mockup" transform="translate(-3.000000, 0.000000)">
                <g id="Group" transform="translate(22.000000, 222.000000)">
                    <polygon id="Shape" points="3.07833333 6.39018913 13.9371852 6.39018913 13.9371852 16.9785283 16.9917407 16.9785283 16.9917407 3.95272174 8.26585185 0 0.0237777778 3.95272174 0.0237777778 16.9785283 3.07833333 16.9785283"></polygon>
                    <rect id="Rectangle-path" x="6.33907407" y="14.9135457" width="1.92677778" height="1.65853478"></rect>
                    <rect id="Rectangle-path" x="8.70388889" y="14.9135457" width="1.92677778" height="1.65853478"></rect>
                    <rect id="Rectangle-path" x="3.97455556" y="14.9135457" width="1.92677778" height="1.65853478"></rect>
                    <rect id="Rectangle-path" x="6.33907407" y="12.6385761" width="1.92677778" height="1.65853478"></rect>
                    <rect id="Rectangle-path" x="3.97455556" y="12.6385761" width="1.92677778" height="1.65853478"></rect>
                    <rect id="Rectangle-path" x="8.70388889" y="12.6385761" width="1.92677778" height="1.65853478"></rect>
                    <polygon id="Rectangle-path" points="6.33907407 10.3639391 8.26585185 10.3639391 8.26585185 12.0224739 6.33907407 12.0224739"></polygon>
                    <polygon id="Rectangle-path" points="3.97455556 10.3639391 5.90133333 10.3639391 5.90133333 12.0224739 3.97455556 12.0224739"></polygon>
                    <rect id="Rectangle-path" x="11.0684074" y="14.9135457" width="1.92677778" height="1.65853478"></rect>
                </g>
            </g>
        </g>
    </g>
</svg>