
<svg width="20px" height="17px" viewBox="0 0 20 17" version="1.1" xmlns="http://www.w3.org/2000/svg" xmlns:xlink="http://www.w3.org/1999/xlink">
    <g id="Page-1" stroke="none" stroke-width="1" fill="none" fill-rule="evenodd">
        <g id="Desktop-HD" transform="translate(-20.000000, -122.000000)" fill="#000000" fill-rule="nonzero">
            <g id="Mockup" transform="translate(-3.000000, 0.000000)">
                <g id="sidemenu" transform="translate(3.000000, 70.000000)">
                    <g id="item" transform="translate(0.000000, 40.000000)">
                        <g id="download-business-statistics-symbol-of-a-graphic" transform="translate(20.000000, 12.000000)">
                            <path d="M0.0371111111,0 L0.0371111111,16.612539 L19.9188889,16.612539 L19.9188889,0 L0.0371111111,0 Z M18.6277778,15.2944113 L1.32822222,15.2944113 L1.32822222,1.31858156 L18.6277778,1.31858156 L18.6277778,15.2944113 Z" id="Shape"></path>
                            <path d="M5.69044444,7.80368794 L3.36822222,10.2715461 L3.36822222,14.4358582 C3.36822222,14.5529645 3.46133333,14.6482837 3.57622222,14.6482837 L6.39577778,14.6482837 C6.51066667,14.6482837 6.60377778,14.5531915 6.60377778,14.4358582 L6.60377778,8.04788652 L5.95355556,7.80368794 L5.69044444,7.80368794 Z" id="Shape"></path>
                            <path d="M11.4333333,9.73912057 L8.614,9.73912057 C8.49888889,9.73912057 8.40577778,9.83421277 8.40577778,9.9515461 L8.40577778,14.4356312 C8.40577778,14.5529645 8.49888889,14.6482837 8.614,14.6482837 L11.4333333,14.6482837 C11.5482222,14.6482837 11.6413333,14.5531915 11.6413333,14.4356312 L11.6413333,9.95131915 C11.6413333,9.83421277 11.5482222,9.73912057 11.4333333,9.73912057 Z" id="Shape"></path>
                            <path d="M15.5315556,5.17106383 L15.0193333,4.73395745 L13.1662222,6.79852482 L13.1662222,14.4356312 C13.1662222,14.5527376 13.2593333,14.6480567 13.3744444,14.6480567 L16.194,14.6480567 C16.3088889,14.6480567 16.402,14.5529645 16.402,14.4356312 L16.402,5.24141844 C16.3904444,5.24822695 16.38,5.25662411 16.3682222,5.26275177 C16.2604444,5.32039716 16.1393333,5.35080851 16.0175556,5.35080851 C15.8395556,5.35103546 15.6675556,5.28726241 15.5315556,5.17106383 Z" id="Shape"></path>
                            <path d="M2.67933333,9.9533617 C2.78844444,9.9533617 2.89755556,9.90956028 2.97933333,9.82286525 L5.63333333,7.00232624 L10.2771111,8.74734752 C10.4357778,8.80658156 10.6131111,8.76278014 10.7275556,8.63568794 L15.0037778,3.87177305 L16.0042222,4.72601418 C16.0533333,4.76777305 16.1215556,4.77503546 16.178,4.74507801 C16.2342222,4.71489362 16.2675556,4.65339007 16.2617778,4.58825532 L16.0448889,2.11177305 C16.0373333,2.02326241 15.9606667,1.95812766 15.8742222,1.96607092 L13.4491111,2.18712057 C13.3857778,2.19279433 13.332,2.2372766 13.3128889,2.29923404 C13.3068889,2.31965957 13.3048889,2.34076596 13.3066667,2.36141844 C13.3104444,2.4031773 13.3297778,2.44266667 13.3624444,2.47035461 L14.3651111,3.3261844 L10.3031111,7.85157447 L5.66622222,6.10904965 C5.51088889,6.0511773 5.33711111,6.09202837 5.22244444,6.21321986 L2.37955556,9.23415603 C2.22044444,9.40346099 2.22555556,9.67217021 2.39133333,9.83466667 C2.47177778,9.91387234 2.57555556,9.9533617 2.67933333,9.9533617 Z" id="Shape"></path>
                        </g>
                    </g>
                </g>
            </g>
        </g>
    </g>
</svg>