
<svg width="22px" height="25px" viewBox="0 0 22 25" version="1.1" xmlns="http://www.w3.org/2000/svg" xmlns:xlink="http://www.w3.org/1999/xlink">
    <g id="Page-1" stroke="none" stroke-width="1" fill="none" fill-rule="evenodd">
        <g id="Desktop-HD" transform="translate(-256.000000, -113.000000)" fill="#202020">
            <g id="Mockup" transform="translate(-3.000000, 0.000000)">
                <g id="title" transform="translate(255.000000, 105.000000)">
                    <g id="icon" transform="translate(4.000000, 8.000000)">
                        <path d="M11.0781593,25 L11.0781593,24.9996643 L10.9220112,24.9996643 L0,24.9996643 C0,17.134541 7.01507086,17.1367232 8.57177836,15.0801351 L8.7499167,14.1423162 C6.56282108,13.0504042 5.01889863,10.4195762 5.01889863,7.3417441 C5.01889863,3.28731804 7.69728105,0 11.0004262,0 C14.3035713,0 16.9819537,3.28731804 16.9819537,7.3417441 C16.9819537,10.3930547 15.4654765,13.008272 13.3075308,14.116634 L13.5103869,15.1828638 C15.2182989,17.1397446 22,17.2673162 22,25 L11.0781593,25 L11.0781593,25 Z" id="customers"></path>
                    </g>
                </g>
            </g>
        </g>
    </g>
</svg>