<svg width="12px" height="7px" viewBox="0 0 12 7" version="1.1" xmlns="http://www.w3.org/2000/svg" xmlns:xlink="http://www.w3.org/1999/xlink">
    <g id="Symbols" stroke="none" stroke-width="1" fill="none" fill-rule="evenodd">
        <g id="topbar/bar" transform="translate(-1393.000000, -32.000000)" fill="#FFFFFF" fill-rule="nonzero">
            <g id="superuser" transform="translate(1165.000000, 13.000000)">
                <g id="sort-down" transform="translate(228.000000, 19.000000)">
                    <path d="M11.7772488,0.211589554 C11.6289121,0.0704908414 11.4530753,0 11.2499025,0 L0.750056437,0 C0.546801568,0 0.371087898,0.0704908414 0.222628112,0.211589554 C0.0741683256,0.352844306 0,0.519845574 0,0.712905438 C0,0.905926292 0.0741683256,1.07292756 0.222628112,1.21406528 L5.47257167,6.20370117 C5.62119564,6.34479988 5.79690931,6.41544676 6,6.41544676 C6.20309069,6.41544676 6.37896854,6.34479988 6.52730519,6.20370117 L11.7772488,1.21402627 C11.9255444,1.07292756 12,0.905926292 12,0.712866428 C12,0.519845574 11.9255444,0.352844306 11.7772488,0.211589554 Z" id="Shape"></path>
                </g>
            </g>
        </g>
    </g>
</svg>